<svg xmlns:dc="http://purl.org/dc/elements/1.1/" xmlns:cc="http://creativecommons.org/ns#" xmlns:rdf="http://www.w3.org/1999/02/22-rdf-syntax-ns#" xmlns:svg="http://www.w3.org/2000/svg" xmlns="http://www.w3.org/2000/svg" xmlns:sodipodi="http://sodipodi.sourceforge.net/DTD/sodipodi-0.dtd" xmlns:inkscape="http://www.inkscape.org/namespaces/inkscape" version="1.1" x="0px" y="0px" viewBox="0 0 100 100"><g transform="translate(0,-952.36218)"><path style="font-size:medium;font-style:normal;font-variant:normal;font-weight:normal;font-stretch:normal;text-indent:0;text-align:start;text-decoration:none;line-height:normal;letter-spacing:normal;word-spacing:normal;text-transform:none;direction:ltr;block-progression:tb;writing-mode:lr-tb;text-anchor:start;baseline-shift:baseline;opacity:1;color:#000000;fill:#000000;fill-opacity:1;fill-rule:nonzero;stroke:none;stroke-width:4;marker:none;visibility:visible;display:inline;overflow:visible;enable-background:accumulate;font-family:Sans;-inkscape-font-specification:Sans" d="M 71.8125 10.96875 A 2.0002 2.0002 0 0 0 70.71875 14.5 L 86.59375 28 L 18 28 C 17.93755 27.997 17.874954 27.997 17.8125 28 C 16.765159 28.0489 15.857156 29.04642 15.90625 30.09375 C 15.95534 31.14108 16.952679 32.0493 18 32 L 86.59375 32 L 70.71875 45.46875 A 2.0002 2.0002 0 1 0 73.28125 48.5 L 93.28125 31.5 A 2.0002 2.0002 0 0 0 93.28125 28.46875 L 73.28125 11.46875 A 2.0002 2.0002 0 0 0 71.8125 10.96875 z M 27.9375 50.96875 A 2.0002 2.0002 0 0 0 26.71875 51.46875 L 6.71875 68.46875 A 2.0002 2.0002 0 0 0 6.71875 71.5 L 26.71875 88.5 A 2.0002 2.0002 0 1 0 29.28125 85.46875 L 13.40625 72 L 82 72 C 83.056625 72.015 84.03125 71.0567 84.03125 70 C 84.03125 68.9433 83.056625 67.9851 82 68 L 13.40625 68 L 29.28125 54.5 A 2.0002 2.0002 0 0 0 27.9375 50.96875 z " transform="translate(0,952.36218)"/></g></svg>
