<svg xmlns="http://www.w3.org/2000/svg"  viewBox="0 0 24 24" width="384px" height="384px"><path d="M 5 3 C 3.9069372 3 3 3.9069372 3 5 L 3 19 C 3 20.092419 3.9058478 20.998932 4.9980469 21 L 16.693359 21.027344 A 1.0001 1.0001 0 0 0 17.140625 20.921875 L 19.369141 22.730469 A 1.0001 1.0001 0 0 0 21 21.955078 L 21 5 C 21 3.9069372 20.093063 3 19 3 L 5 3 z M 5 5 L 19 5 L 19 19.853516 L 17.109375 18.320312 A 1.0001 1.0001 0 0 0 15.482422 19.025391 L 5.0019531 19 A 1.0001 1.0001 0 0 0 5 19 L 5 5 z M 10.636719 8.15625 C 9.3447187 8.28025 8.3632812 9.0527344 8.3632812 9.0527344 C 8.3632812 9.0527344 7.2 10.729859 7 14.005859 C 8.176 15.349859 9.9550781 15.357422 9.9550781 15.357422 L 10.324219 14.865234 C 9.9472187 14.735234 9.625875 14.568453 9.296875 14.314453 L 9.3652344 14.111328 C 9.9802344 14.392328 10.77 14.556641 12 14.556641 C 13.23 14.556641 14.019766 14.391328 14.634766 14.111328 L 14.703125 14.314453 C 14.373125 14.569453 14.051781 14.736234 13.675781 14.865234 L 14.044922 15.357422 C 14.044922 15.357422 15.824 15.349859 17 14.005859 C 16.8 10.729859 15.636719 9.0527344 15.636719 9.0527344 C 15.636719 9.0527344 14.595281 8.24825 13.363281 8.15625 L 13.109375 8.6757812 C 12.732375 8.6067813 12.339 8.5566406 12 8.5566406 C 11.65 8.5566406 11.256719 8.6039687 10.886719 8.6679688 L 10.636719 8.15625 z M 10.199219 11 C 10.639219 11 11 11.448 11 12 C 11 12.552 10.639219 13 10.199219 13 C 9.7592187 13 9.4003906 12.552 9.4003906 12 C 9.4003906 11.448 9.7592188 11 10.199219 11 z M 13.800781 11 C 14.240781 11 14.599609 11.448 14.599609 12 C 14.599609 12.552 14.240781 13 13.800781 13 C 13.360781 13 13 12.552 13 12 C 13 11.448 13.360781 11 13.800781 11 z"/></svg>