<svg version="1.0" xmlns="http://www.w3.org/2000/svg" width="682.667" height="682.667" viewBox="0 0 512 512"><path d="M172.6 1.6c-35.7 7.1-61.5 32.6-70.8 70.1-2.9 11.7-3.1 33-.5 45 5.3 24.8 20.5 49.1 47.2 75.8 25.3 25.2 104 92.7 110.3 94.6 7.6 2.2 9 1.3 47.2-31.2 41.4-35.3 51.1-43.8 67.9-60.3 37.2-36.4 52.3-65.1 52.3-99.6.1-52.3-35.2-92.6-83.7-95.7-19.1-1.2-37.3 4-53 15.2-6.8 4.8-18.5 16.8-23.4 23.8l-3.2 4.7-6-8c-6.7-8.9-16.5-18.1-24.9-23.5C215.5 2 192.1-2.3 172.6 1.6zm32.9 31.3c17.1 6.1 31.5 22 40.8 45.1 5.3 13 8.4 16 16.9 16 6.4 0 10.5-2.9 13.4-9.8 6.7-15.3 8.2-18.3 13.1-25.9 14.8-22.8 37.6-32.5 61.7-26.3 10.9 2.8 16.9 6.3 25.6 15 13.1 13 19.3 28.5 19.2 48 0 13.5-2 21.9-8.2 34.5-11.7 23.8-30.2 42.9-94.8 97.9l-30.3 25.8-2.2-1.9c-1.2-1.1-12.8-10.9-25.7-21.8-36.2-30.7-45.4-38.7-60.8-53.9-15.9-15.6-23.4-24.3-30.9-35.8-18.2-27.8-18.9-59.2-2.1-84.4 8.6-12.9 22.1-21.8 37.8-24.8 5.6-1.1 20.6.2 26.5 2.3zM170 296.7c-16.8 1.8-35.4 9.2-49.8 19.7l-6.1 4.5-5.4-5.3c-3-3-7.7-6.6-10.5-8-10.3-5.2-13.8-5.6-51.1-5.6-32.8 0-34.7.1-38.7 2.1-3.1 1.5-4.8 3.2-6.3 6.3C0 314.6 0 315.8 0 407c0 90.3 0 92.5 2 96.5 1.3 2.6 3.4 4.9 5.9 6.3 3.8 2.1 4.7 2.2 38.7 2.2 25.5 0 36.4-.4 40.5-1.4 6.6-1.5 16-6.5 20.5-10.8l3.2-3 16.3 4c9 2.3 21.6 5 27.9 6.1 25.3 4.4 31.5 4.6 120.5 4.6 78.9 0 85.6-.1 93-1.8 22.2-5.1 43.4-17.5 57.1-33.4 9.1-10.5 77.8-102.7 81.1-108.8 14.2-26.4-2.9-59.9-33.1-64.6-11.7-1.8-25.3 1.7-34.5 9-2 1.6-13.8 13.8-26.1 27-12.3 13.3-22.6 24.1-22.9 24.1-.3 0-1.7-2.6-3.1-5.7-4.2-9.8-15.4-19.4-27.5-23.6-1.8-.7-20.5-1.3-47-1.6-50.9-.7-47.9-.1-63.3-11.8-11.8-8.9-20.6-13.9-31.3-17.7-15.3-5.5-32.3-7.6-47.9-5.9zm31.5 31.8c8.8 2.4 19.1 7.7 27 13.9 10.1 8 18.9 13.1 28 16.3l8 2.8 43.5.5c40.5.5 43.7.6 46.7 2.4 3.8 2.3 7.3 8.3 7.3 12.5 0 5.1-3.5 10.8-8 13.1-3.8 1.9-5.8 2-60 2-45.3 0-56.7.3-59.3 1.4-12.5 5.3-11.7 23.9 1.3 27.7 2.3.7 25.1.9 67 .7l63.5-.3 6.3-2.7c3.5-1.4 7.9-3.7 9.8-5 2-1.2 19.3-19.2 38.5-39.8 19.2-20.6 36.6-38.5 38.7-39.7 4.6-2.8 8.4-2.9 13.8-.2 3.1 1.5 4.8 3.2 6.3 6.3 2.5 5 2.6 7.5.7 12-.8 1.8-18.2 25.8-38.8 53.2-42.1 56.1-46.1 60.5-61.2 67.9-17 8.4-11.6 7.9-97.1 8.3-96.2.4-109.7-.4-146.7-9.4l-14.8-3.6V354l4.6-4.2c14.4-13.3 28.3-20.5 44.9-23.2 5.5-.8 23.9.3 30 1.9zm-117.3 5.7c2.4 1.4 4.8 3.8 5.9 6 1.8 3.5 1.9 6.8 1.9 66.8 0 61.2-.1 63.2-2 67-1.3 2.6-3.4 4.7-6 6-3.6 1.8-5.8 2-29 2H30V332h25.1c24.2 0 25.3.1 29.1 2.2z"/></svg>